# ProBuilder 4.0.5
# https://unity3d.com/unity/features/worldbuilding/probuilder
# 30/10/2019 21:48:01

mtllib ./back-wall-cover.mtl
o back-wall-cover

g back-wall-cover
v 8.249925 -1.8 0.25
v -8.249926 -1.8 0.25
v 8.249926 1.5999 0.25
v -8.249926 1.5999 0.25
v -8.249926 -1.8 -0.25
v 8.249925 -1.8 -0.25
v -8.249926 1.5999 -0.25
v 8.249926 1.5999 -0.25
v -8.250025 1.6999 0.125
v 8.250025 1.6999 0.125
v -8.250025 1.8 -0.125
v -8.250025 1.8 0.125
v 8.250025 1.8 -0.125
v 8.250025 1.8 0.125
v -8.250025 1.6999 -0.125
v 8.250025 1.6999 -0.125

vt 8.249925 -1.8
vt -8.249926 -1.8
vt 8.249926 1.5999
vt -8.249926 1.5999
vt 8.250025 -0.9643099
vt 8.249926 -0.8042319
vt -8.250025 -0.9643099
vt -8.249926 -0.8042319
vt 8.250025 -0.125
vt 8.250025 0.125
vt -8.250025 -0.125
vt -8.250025 0.125
vt 8.249926 0.8042319
vt 8.250025 0.9643099
vt -8.249926 0.8042319
vt -8.250025 0.9643099
vt 8.250025 1.6999
vt -8.250025 1.6999
vt 8.250025 1.8
vt -8.250025 1.8

vn 0 0 1
vn 0 0 -1
vn 0 0.7808691 0.6246947
vn 0 1 0
vn 0 0.7808691 -0.6246947

g back-wall-cover
usemtl Default-Material
f 3/3/1 4/4/1 2/2/1 1/1/1
f 7/3/2 8/4/2 6/2/2 5/1/2
f 3/8/3 10/7/3 9/5/3 4/6/3
f 14/12/4 13/11/4 11/9/4 12/10/4
f 16/16/5 8/15/5 7/13/5 15/14/5
f 11/19/2 13/20/2 16/18/2 15/17/2
f 14/19/1 12/20/1 9/18/1 10/17/1

