# ProBuilder 4.0.5
# https://unity3d.com/unity/features/worldbuilding/probuilder
# 30/10/2019 22:30:37

mtllib ./cover.mtl
o cover

g cover
v 1.749951 -0.60005 0.2500006
v -1.74995 -0.60005 0.2500006
v 1.749951 0.39995 0.2500006
v -1.74995 0.39995 0.2500006
v -1.74995 -0.60005 -0.2499994
v -1.74995 0.39995 -0.2499994
v 1.749951 -0.60005 -0.2499994
v 1.749951 0.39995 -0.2499994
v -1.75005 0.4999501 -0.1249994
v -1.75005 0.4999501 0.1250006
v 1.750051 0.4999501 0.1250006
v 1.750051 0.4999501 -0.1249994
v -1.75005 0.6000501 -0.1249994
v -1.75005 0.6000501 0.1250006
v 1.750051 0.6000501 -0.1249994
v 1.750051 0.6000501 0.1250006

vt 1.749951 -0.60005
vt -1.74995 -0.60005
vt 1.749951 0.39995
vt -1.74995 0.39995
vt 0.2500006 -0.60005
vt -0.2499994 -0.60005
vt 0.2500006 0.39995
vt -0.2499994 0.39995
vt 0.2499994 -0.60005
vt -0.2500006 -0.60005
vt 0.2499994 0.39995
vt -0.2500006 0.39995
vt 1.749951 -0.2499994
vt -1.74995 -0.2499994
vt 1.749951 0.2500006
vt -1.74995 0.2500006
vt -0.2499994 0.4017022
vt 0.2500006 0.4017022
vt -0.1249994 0.5017022
vt 0.1250006 0.5017022
vt -0.2500006 0.4017022
vt 0.2499994 0.4017022
vt -0.1250006 0.5017022
vt 0.1249994 0.5017022
vt 1.75005 -0.2147073
vt 1.74995 -0.0546292
vt -1.750051 -0.2147073
vt -1.749951 -0.0546292
vt 1.75005 -0.1249994
vt 1.75005 0.1250006
vt -1.750051 -0.1249994
vt -1.750051 0.1250006
vt 1.74995 0.05463013
vt 1.75005 0.2147083
vt -1.749951 0.05463013
vt -1.750051 0.2147083
vt 0.1250006 0.4999501
vt -0.1249994 0.4999501
vt 0.1250006 0.6000501
vt -0.1249994 0.6000501
vt 1.75005 0.4999501
vt -1.750051 0.4999501
vt 1.75005 0.6000501
vt -1.750051 0.6000501
vt 0.1249994 0.4999501
vt -0.1250006 0.4999501
vt 0.1249994 0.6000501
vt -0.1250006 0.6000501

vn 0 0 1
vn -1 0 0
vn 0 0 -1
vn 1 0 0
vn 0 -1 0
vn -0.9999995 -0.001001357 0
vn 0.9999995 -0.001001357 0
vn 0 0.7808688 0.6246952
vn 0 1 0
vn 0 0.7808688 -0.6246952

g cover
usemtl Default-Material
f 3/3/1 4/4/1 2/2/1 1/1/1
f 4/7/2 6/8/2 5/6/2 2/5/2
f 6/3/3 8/4/3 7/2/3 5/1/3
f 8/11/4 3/12/4 1/10/4 7/9/4
f 1/15/5 2/16/5 5/14/5 7/13/5
f 10/20/6 9/19/6 6/17/6 4/18/6
f 12/24/7 11/23/7 3/21/7 8/22/7
f 3/28/8 11/27/8 10/25/8 4/26/8
f 16/32/9 15/31/9 13/29/9 14/30/9
f 12/36/10 8/35/10 6/33/10 9/34/10
f 14/39/2 13/40/2 9/38/2 10/37/2
f 13/43/3 15/44/3 12/42/3 9/41/3
f 15/47/4 16/48/4 11/46/4 12/45/4
f 16/43/1 14/44/1 10/42/1 11/41/1

