# ProBuilder 4.0.5
# https://unity3d.com/unity/features/worldbuilding/probuilder
# 31/10/2019 00:37:24

mtllib ./deck.mtl
o deck

g Cube
v 1.5 -0.35005 2
v -1.5 -0.35005 2
v 1.5 0.34995 2
v -1.5 0.34995 2
v -1.5 -0.35005 -2
v -1.5 0.34995 -2
v 1.5 -0.35005 -2
v 1.5 0.34995 -2
v 0.8789063 -0.14985 1.125
v -0.8789063 -0.14985 1.125
v 0.8789063 -0.14985 -1.125
v -0.8789063 -0.14985 -1.125
v 0.8789063 0.35005 1.125
v -0.8789063 0.35005 1.125
v 0.8789063 0.35005 -1.125
v -0.8789063 0.35005 -1.125

vt 1.5 -0.35005
vt -1.5 -0.35005
vt 1.5 0.34995
vt -1.5 0.34995
vt 2 -0.35005
vt -2 -0.35005
vt 2 0.34995
vt -2 0.34995
vt -0.8789063 1.125
vt 0.8789063 1.125
vt -0.8789063 -1.125
vt 0.8789063 -1.125
vt -1.5 1.99996
vt 1.5 1.99996
vt -0.8789063 1.12496
vt 0.8789063 1.12496
vt -1.499944 -2
vt -1.499944 2
vt 1.499944 2
vt 1.499944 -2
vt 1.5 -1.99996
vt -1.5 -1.99996
vt 0.8789063 -1.12496
vt -0.8789063 -1.12496
vt -0.8789063 0.35005
vt 0.8789063 0.35005
vt -0.8789063 -0.14985
vt 0.8789063 -0.14985
vt -1.125 0.35005
vt 1.125 0.35005
vt -1.125 -0.14985
vt 1.125 -0.14985

vn 0 0 1
vn -1 0 0
vn 0 0 -1
vn 1 0 0
vn 0 1 0

g Cube
usemtl Default-Material
f 3/3/1 4/4/1 2/2/1 1/1/1
f 4/7/2 6/8/2 5/6/2 2/5/2
f 6/3/3 8/4/3 7/2/3 5/1/3
f 8/7/4 3/8/4 1/6/4 7/5/4
f 11/11/5 12/12/5 10/10/5 9/9/5
f 13/15/5 14/16/5 4/14/5 3/13/5
f 15/11/5 13/9/5 3/18/5 8/17/5
f 14/10/5 16/12/5 6/20/5 4/19/5
f 16/23/5 15/24/5 8/22/5 6/21/5
f 9/27/3 10/28/3 14/26/3 13/25/3
f 11/31/2 9/32/2 13/30/2 15/29/2
f 10/31/4 12/32/4 16/30/4 14/29/4
f 12/27/1 11/28/1 15/26/1 16/25/1

