# ProBuilder 4.0.5
# https://unity3d.com/unity/features/worldbuilding/probuilder
# 30/10/2019 00:34:40

mtllib ./door.mtl
o door

g door
v 0.3235238 3.311806 0.0625
v 0.6470475 3.27986 0.0625
v 0.9485238 3.186204 0.0625
v 1.25 3.092548 0.0625
v 1.508883 2.943562 0.0625
v 1.767767 2.794575 0.0625
v 1.966415 2.600412 0.0625
v 2.165063 2.40625 0.0625
v 2.289939 2.180143 0.0625
v 2.414814 1.954036 0.0625
v 2.457407 1.711393 0.0625
v 2.5 1.46875 0.0625
v 2.5 -0.84375 0.0625
v 2.5 -3.34375 0.0625
v 0 -3.34375 0.0625
v 2.384186E-07 1.91822 0.0625
v 0 3.34375 0.0625
v 0 -3.34375 -0.0625
v 2.384186E-07 1.91822 -0.0625
v 0 3.34375 -0.0625
v -0.6470478 3.27986 -0.0625
v -0.9485238 3.186204 -0.0625
v -1.25 3.092548 -0.0625
v -1.508883 2.943562 -0.0625
v -1.767767 2.794575 -0.0625
v -1.966415 2.600412 -0.0625
v -2.165063 2.40625 -0.0625
v -2.289939 2.180143 -0.0625
v -2.414814 1.954036 -0.0625
v -2.457407 1.711393 -0.0625
v -2.5 1.46875 -0.0625
v -2.5 -0.84375 -0.0625
v -2.5 -3.34375 -0.0625

vt -0.3235238 3.311806
vt -0.6470475 3.27986
vt -0.9485238 3.186204
vt -1.25 3.092548
vt -1.508883 2.943562
vt -1.767767 2.794575
vt -1.966415 2.600412
vt -2.165063 2.40625
vt -2.289939 2.180143
vt -2.414814 1.954036
vt -2.457407 1.711393
vt -2.5 1.46875
vt -2.5 -0.84375
vt -2.5 -3.34375
vt 0 -3.34375
vt -2.384186E-07 1.91822
vt 0 3.34375
vt -0.0625 -3.34375
vt 0.0625 -3.34375
vt -0.0625 1.91822
vt -0.0625 3.34375
vt 0.0625 1.91822
vt 0.0625 3.34375
vt 0.6470478 3.27986
vt 0.9485238 3.186204
vt 1.25 3.092548
vt 1.508883 2.943562
vt 1.767767 2.794575
vt 1.966415 2.600412
vt 2.165063 2.40625
vt 2.289939 2.180143
vt 2.414814 1.954036
vt 2.457407 1.711393
vt 2.5 1.46875
vt 2.5 -0.84375
vt 2.5 -3.34375

vn 0 0 -1
vn 1 -4.530976E-08 0

g door
usemtl Default-Material
f 1/1/1 16/16/1 17/17/1
f 2/2/1 16/16/1 1/1/1
f 3/3/1 16/16/1 2/2/1
f 4/4/1 16/16/1 3/3/1
f 5/5/1 16/16/1 4/4/1
f 6/6/1 16/16/1 5/5/1
f 7/7/1 16/16/1 6/6/1
f 8/8/1 16/16/1 7/7/1
f 9/9/1 16/16/1 8/8/1
f 10/10/1 16/16/1 9/9/1
f 11/11/1 16/16/1 10/10/1
f 12/12/1 16/16/1 11/11/1
f 16/16/1 12/12/1 13/13/1
f 13/13/1 15/15/1 16/16/1
f 13/13/1 14/14/1 15/15/1
f 20/17/1 22/25/1 21/24/1
f 20/17/1 23/26/1 22/25/1
f 20/17/1 24/27/1 23/26/1
f 20/17/1 25/28/1 24/27/1
f 25/28/1 20/17/1 26/29/1
f 26/29/1 20/17/1 27/30/1
f 19/16/1 27/30/1 20/17/1
f 27/30/1 19/16/1 28/31/1
f 19/16/1 29/32/1 28/31/1
f 19/16/1 30/33/1 29/32/1
f 19/16/1 31/34/1 30/33/1
f 19/16/1 18/15/1 31/34/1
f 18/15/1 32/35/1 31/34/1
f 18/15/1 33/36/1 32/35/1
f 19/22/2 17/21/2 16/20/2
f 19/22/2 20/23/2 17/21/2
f 18/19/2 16/20/2 15/18/2
f 18/19/2 19/22/2 16/20/2

