# ProBuilder 4.0.5
# https://unity3d.com/unity/features/worldbuilding/probuilder
# 30/10/2019 03:46:43

mtllib ./header.mtl
o header

g header
v -0.4375 -0.07500172 -2.71875
v -0.375 -0.1250014 -2.65625
v 0.3750381 -0.1250982 2.656189
v 0.4375629 -0.07507992 2.71875
v -0.5000992 0.1250982 -2.78135
v 0.5000992 0.1250982 -2.78135
v 0.4375 -0.02499962 2.71875
v 0.5000992 0.02505016 2.78135
v -0.4375 -0.02495146 -2.71875
v -0.5000992 0.02509832 -2.78135
v -0.4375992 -0.02499962 2.71875
v -0.5000992 0.02505016 2.78135
v -0.4376335 -0.07504511 2.71875
v 0.5000992 0.02509832 -2.78135
v 0.4375 -0.02495146 -2.71875
v 0.4375 -0.07500172 -2.71875
v 0.5000992 0.1250982 2.78135
v -0.5000992 0.1250982 2.78135
v 0.375 -0.1250014 -2.65625
v -0.3750286 -0.1250796 2.656213

vt -0.2947817 -2.718745
vt -0.375 -1.9961
vt -0.4375 -2.076139
vt 0.3750381 1.99651
vt 0.4375629 2.076608
vt 0.5000992 -2.78135
vt -0.5000992 -2.78135
vt 0.4375629 -0.07507992
vt 0.4375 -0.02499962
vt 0.5000992 2.188026
vt 0.4375 2.107877
vt -2.718739 -0.02495146
vt -0.4062791 -2.781345
vt -0.3261315 -2.718745
vt 0.4375 1.1105
vt 0.4375 1.155607
vt 0.5000992 1.22784
vt -0.4375992 2.107877
vt -0.5000992 2.188026
vt -0.4376335 -0.07504511
vt -0.4375992 -0.02499962
vt -0.5000992 1.22784
vt -0.4375 1.155607
vt -0.4375 1.1105
vt -2.718739 -0.07500172
vt 0.5000992 0.02505016
vt 0.5000992 0.1250982
vt -0.5000992 0.02505016
vt -0.5000992 0.1250982
vt 2.78135 0.02509832
vt 2.78135 0.1250982
vt -2.78135 0.1250982
vt -2.78135 0.02509832
vt 0.2947826 -2.718744
vt 0.2147437 -2.656244
vt 0.375 -2.656248
vt -0.375 -2.656248
vt 0.3750381 2.656191
vt -0.3750286 2.656215
vt 2.718761 -0.07504511
vt 2.718761 -0.02499962
vt -0.3261789 2.718755
vt -0.4062491 2.781355
vt 0.5000992 2.78135
vt -0.5000992 2.78135
vt 0.4062766 -2.781348
vt 0.3261289 -2.718748
vt 0.4062465 2.781352
vt 0.3260989 2.718752
vt -0.2147163 2.656218
vt -0.2948588 2.718755
vt -0.3750287 1.996541
vt -0.4376336 2.07663
vt 0.2947829 2.718756
vt 0.2147131 2.656195
vt 0.375 -1.9961
vt 0.4375 -2.076139
vt -0.2147428 -2.656245

vn -0.6245081 -0.7810184 -1.821145E-05
vn 0 -0.7808706 -0.6246929
vn 4.844111E-07 -0.7810549 0.6244624
vn -1.528623E-05 -0.7809549 0.6245874
vn 0 1 0
vn 0 0 1
vn -0.9999999 0.0003430106 -2.139434E-05
vn -0.6247686 -0.7808099 -1.253311E-05
vn -0.624459 -0.7810576 -1.830829E-05
vn 0 0 -1
vn 0 -0.7810534 -0.6244643
vn -1 0 -2.455437E-05
vn 1 0 0
vn 0.6246816 -0.7808796 -1.846158E-05
vn 0 -1 -1.8221E-05
vn -0.9999998 0.0006860212 -1.823431E-05
vn -0.6250782 -0.7805622 -6.757924E-06
vn 0.9999996 0.0006284153 -5.778774E-06
vn 0.9999992 0.001256831 -1.155755E-05
vn 0.624466 -0.7810521 -6.762165E-06

g header
usemtl Default-Material
f 3/38/15 20/39/15 2/37/15 19/36/15
f 17/32/13 8/33/13 14/30/13 6/31/13
f 8/48/20 7/49/20 15/47/20 14/46/20
f 7/12/18 4/25/19 16/40/18 15/41/13
f 13/40/7 11/41/16 9/12/7 1/25/12
f 11/42/8 12/43/17 10/13/8 9/14/9
f 12/30/12 18/31/12 5/32/12 10/33/12
f 17/27/6 18/29/6 12/28/6 8/26/6
f 8/10/3 12/19/3 11/18/3 7/11/3
f 7/9/6 11/21/6 13/20/6 4/8/6
f 4/5/4 13/53/4 20/52/4 3/4/3
f 4/54/14 3/55/14 19/35/14 16/34/14
f 1/3/2 16/57/2 19/56/2 2/2/2
f 1/15/10 9/16/10 15/23/10 16/24/10
f 5/27/10 6/29/10 14/28/10 10/26/10
f 9/16/11 10/17/11 14/22/11 15/23/11
f 20/50/1 13/51/9 1/1/1 2/58/8
f 18/44/5 17/45/5 6/7/5 5/6/5

