# ProBuilder 4.0.5
# https://unity3d.com/unity/features/worldbuilding/probuilder
# 30/10/2019 03:03:45

mtllib ./header.mtl
o header

g header
v 36.37512 -0.1250076 -0.374986
v 36.37512 -0.1250076 0.3750141
v 36.43762 -0.07500744 -0.374986
v 36.43762 -0.07500744 0.3750141
v -36.37506 -0.1250925 0.3750174
v -36.37506 -0.1250858 -0.3750151
v -36.4376 -0.07647419 0.4000056
v -36.4376 -0.07505608 -0.3750151
v -36.37503 -0.07508087 0.4375441
v -36.4376 -0.07506275 0.4375288
v 35.62512 -0.1250076 0.3750141
v 36.37512 -0.07500744 0.4375141
v 35.62512 -0.07500744 0.4375141
v 36.43762 -0.07500744 0.4375141
v 36.37512 -0.07500744 -0.437486
v 36.43772 -0.07500744 -0.437486
v 35.62512 -0.1250076 -0.3749861
v 35.62512 -0.07500744 -0.4374861
v -36.4376 -0.07505512 -0.4375151
v -36.37506 -0.07508564 -0.4375151
v 36.50022 0.1250925 -0.500087
v 36.37512 0.1250925 -0.5000871
v 35.62512 0.1250925 -0.5000852
v 35.50002 0.1250925 -0.5000853
v 35.50002 0.1250925 -0.3749861
v 35.50002 0.1250925 0.375014
v 35.50002 0.1250925 0.5001152
v 35.62512 0.1250925 0.5001152
v 36.37512 0.1250925 0.5001153
v 36.50022 0.1250925 0.5001153
v 36.50022 0.1250925 0.3750141
v 36.50022 0.1250925 -0.3749859
v 36.37512 -0.02495766 -0.437486
v 35.62512 -0.02495766 -0.4374861
v 36.37512 0.02509212 -0.5000871
v 35.62512 0.02509212 -0.5000852
v -36.4376 -0.02500534 -0.3750151
v -36.4376 -0.02500534 0.374985
v -36.50019 0.02504444 -0.3750151
v -36.5002 0.02504444 0.374985
v 36.43762 -0.02495766 0.3750141
v 36.43762 -0.02495766 -0.374986
v 36.50022 0.02509212 0.3750141
v 36.50022 0.02509212 -0.3749859
v 35.62512 -0.02495766 0.4375141
v 36.37512 -0.02495766 0.4375141
v 35.62512 0.02509212 0.5001152
v 36.37512 0.02509212 0.5001153
v 36.43772 -0.02495766 -0.437486
v 36.50022 0.02509212 -0.500087
v 36.43762 -0.02495766 0.4375141
v 36.50022 0.02509212 0.5001153
v 35.56262 -0.02495766 0.4375141
v 35.50002 0.02509212 0.5001152
v 35.56262 -0.07500744 0.4375141
v 35.56262 -0.02495766 -0.4374861
v 35.56262 -0.07500744 -0.4374861
v 35.50002 0.02509212 -0.5000853
v -36.4376 -0.02500534 0.437485
v -36.5002 0.02504444 0.5000899
v -36.4376 -0.02500534 -0.4375151
v -36.50019 0.02504444 -0.5001143
v -36.50019 0.1250925 -0.3750151
v -36.50019 0.1250925 -0.5001143
v -36.5002 0.1250925 0.374985
v -36.5002 0.1250925 0.5000899

vt 23.52384 -0.6249859
vt 23.52384 -1.374986
vt 23.4438 -0.6249859
vt 23.4438 -1.374986
vt -25.46432 -1.37501
vt -25.46431 -0.6249769
vt -25.3851 -1.399998
vt -25.38423 -0.6249769
vt -30.96306 -13.08776
vt -30.88596 -13.11866
vt -30.94227 -13.16508
vt -30.88537 -13.14976
vt 34.62512 -4.587474
vt 35.37512 -4.587474
vt 34.62512 -4.667513
vt 35.37512 -4.667513
vt 23.4438 -1.437486
vt 23.49261 -1.437486
vt 23.52384 13.25698
vt 23.4438 13.25698
vt 23.49261 13.33067
vt 23.44373 13.30996
vt 35.37512 3.025763
vt 34.62512 3.025763
vt 35.37512 3.105802
vt 34.62512 3.105802
vt -25.00566 -0.6247437
vt -25.08575 -0.6247437
vt -25.00566 -0.5622436
vt -25.05451 -0.5622432
vt -34.50002 -0.4998848
vt -34.62512 -0.4998847
vt -35.37512 -0.4998865
vt -35.50022 -0.4998864
vt -35.50022 -0.6249857
vt -35.50022 -1.374986
vt -35.50022 -1.500087
vt -35.37512 -1.500087
vt -34.62512 -1.500087
vt -34.50002 -1.500087
vt -34.50002 -1.374986
vt -34.50002 -0.6249859
vt -35.62512 -0.3786087
vt -36.37512 -0.3786087
vt -36.37512 -0.3335018
vt -35.62512 -0.3335018
vt 34.62512 3.946177
vt 34.62512 4.018411
vt 35.37512 4.018409
vt 35.37512 3.946177
vt 0.3998105 -0.3850431
vt -0.3755512 -0.3771169
vt -0.3751401 -0.3284326
vt 0.3752012 -0.3347681
vt -26.58744 2.041548
vt -26.58659 2.12176
vt -25.8359 2.113767
vt -25.83675 2.033546
vt 0.374986 0.05471325
vt -0.3750141 0.05471325
vt -0.3750141 0.09982014
vt 0.374986 0.09982014
vt 25.05702 2.474743
vt 25.05702 2.546974
vt 25.80702 2.546974
vt 25.80702 2.474743
vt 36.37508 0.04974455
vt 35.62482 0.05471392
vt 35.62515 0.1047869
vt 36.37542 0.09981756
vt 35.62434 0.7889396
vt 35.6252 0.8691623
vt 36.37589 0.8611566
vt 36.37503 0.7809338
vt 34.56252 3.946175
vt 34.50002 4.018408
vt -36.43772 -0.3786087
vt -36.43772 -0.3335018
vt 36.37119 0.05496789
vt 36.37547 0.1051987
vt 36.44155 0.09956263
vt 36.43727 0.04933186
vt 36.37298 0.7904757
vt 36.37761 0.8697886
vt 36.50236 0.8624995
vt 36.4353 0.786834
vt 35.63379 0.8576585
vt 35.62639 0.7799335
vt 35.56084 0.7861772
vt 35.50258 0.8701559
vt 35.62905 0.09956261
vt 35.62477 0.04933184
vt 35.55869 0.05496792
vt 35.56297 0.1051987
vt -35.56262 -0.3335018
vt -35.56262 -0.3786087
vt 35.50022 4.018413
vt 35.43762 3.946181
vt 0.3983549 -0.3803089
vt 0.3766274 -0.3279004
vt 0.4431704 -0.334466
vt 0.4384401 -0.3828855
vt -25.84016 2.042946
vt -25.83553 2.122257
vt -25.71078 2.114969
vt -25.77784 2.039305
vt 24.99452 2.474743
vt 24.93192 2.546974
vt -0.4375141 0.05471325
vt -0.4375141 0.09982014
vt 0.4328088 0.05479908
vt 0.4328088 0.09990597
vt 0.4953089 0.09990597
vt 0.4953089 0.05479908
vt 25.8085 2.450751
vt 25.8086 2.523066
vt 25.93371 2.522896
vt 25.87101 2.450736
vt -26.57799 2.110123
vt -26.5854 2.032403
vt -26.65095 2.038647
vt -26.70921 2.12262
vt -0.3710799 -0.333801
vt -0.3753641 -0.3840327
vt -0.4414503 -0.3783954
vt -0.4371662 -0.3281646
vt 0.500087 0.02509212
vt 0.3749859 0.02509212
vt 0.500087 0.1250925
vt 0.3749859 0.1250925
vt -36.37512 0.02509212
vt -36.50022 0.02509212
vt -36.37512 0.1250925
vt -36.50022 0.1250925
vt -35.50002 0.02509212
vt -35.62512 0.02509212
vt -35.50002 0.1250925
vt -35.62512 0.1250925
vt -0.3750151 0.02504444
vt -0.5001143 0.02504444
vt -0.3750151 0.1250925
vt -0.5001143 0.1250925
vt 0.3753563 0.02504444
vt -0.3746438 0.02504444
vt 0.3753563 0.1250925
vt -0.3746438 0.1250925
vt 36.50022 0.02509212
vt 36.37512 0.02509212
vt 36.50022 0.1250925
vt 36.37512 0.1250925
vt 35.62512 0.02509212
vt 35.62512 0.1250925
vt 35.50002 0.02509212
vt 35.50002 0.1250925
vt -35.50002 0.375014
vt -35.50002 0.5001152
vt 36.5002 0.374985
vt 36.5002 0.5000899
vt -35.50002 -0.3749861
vt 36.50019 -0.3750151
vt -35.50002 -0.5000853
vt 36.50019 -0.5001143
vt -1.919373 -32.79678
vt -1.997654 -32.72807
vt 4.730772 37.02586
vt 4.65249 37.09457
vt 37.89498 -4.112931
vt 37.89021 -4.161339
vt -38.76277 3.450654
vt -38.76755 3.402239
vt 0.2000217 -33.58837
vt 0.1164808 -33.64565
vt 4.362993 37.66086
vt 4.279449 37.60358
vt 2.137726 -4.49601
vt -34.23722 -4.281254
vt -34.23722 -4.201215
vt 37.76271 -4.281299
vt 37.76273 -4.201231
vt -33.11691 -1.400009
vt -33.11691 -0.6500086
vt 38.88305 -1.400018
vt 38.88306 -0.6499858
vt -33.05449 -0.4822645
vt -33.05449 -0.4022254
vt 38.94559 -0.4822336
vt 38.94559 -0.4021944
vt 3.320523 -0.1875
vt -37.63041 2.865408
vt -37.62612 2.915639
vt 38.50111 -3.627788
vt 38.50539 -3.577557

vn 0.6246965 -0.7808676 0
vn -0.6137174 -0.7895257 -7.844469E-07
vn -0.619203 -0.7851992 -0.000714803
vn -0.6246886 -0.7808727 -0.001428822
vn -0.3365553 -0.7353116 0.588258
vn -0.1684269 -0.8673024 0.3129232
vn -0.000298561 -0.9992933 0.03758842
vn -4.964642E-08 -0.7808676 0.6246965
vn 0.3123482 -0.7808676 0.3123482
vn 0.5298138 -0.6622648 -0.5298138
vn 0.2649069 -0.8311324 -0.2649069
vn 0 -1 0
vn 7.446963E-08 -0.7808676 -0.6246965
vn -0.6246893 -0.7808735 -1.191518E-05
vn -0.312535 -0.7808706 -0.3123542
vn 0 1 0
vn 1.192093E-07 0 -1
vn 7.444123E-08 -0.7810581 -0.6244583
vn -1 0 0
vn -0.6244934 -0.7810302 -3.176455E-06
vn -0.6245165 -0.7810116 -6.35291E-06
vn 1 0 0
vn 0.6244702 -0.7810487 0
vn -7.947286E-08 0 1
vn -7.444125E-08 -0.7810582 0.6244583
vn 0.9999987 0 0.001586912
vn 0.6244698 -0.7810484 0.00099098
vn 0.6250741 -0.7805654 0
vn -9.967744E-08 0.0004381869 0.9999998
vn 2.046309E-07 0.0008763738 0.9999996
vn 0 0 0
vn -1.684376E-07 0.3217275 0.382742
vn -3.368752E-07 0.6434549 0.765484
vn 2.020421E-07 -7.424654E-05 -0.5

g header
usemtl Default-Material
f 22/32/16 32/42/16 21/31/16
f 25/35/16 23/33/16 24/34/16
f 25/35/16 22/32/16 23/33/16
f 32/42/16 22/32/16 25/35/16
f 32/42/16 25/35/16 26/36/16
f 32/42/16 26/36/16 31/41/16
f 29/39/16 30/40/16 31/41/16
f 26/36/16 29/39/16 31/41/16
f 26/36/16 28/38/16 29/39/16
f 26/36/16 27/37/16 28/38/16
f 4/4/1 2/2/1 1/1/1
f 1/1/1 3/3/1 4/4/1
f 8/8/4 6/6/3 5/5/2
f 5/5/2 7/7/3 8/8/4
f 10/12/7 7/10/6 5/9/5
f 5/9/5 9/11/6 10/12/7
f 13/16/8 11/14/8 2/13/8
f 2/13/8 12/15/8 13/16/8
f 12/18/8 2/2/9 4/4/1
f 4/4/1 14/17/9 12/18/8
f 16/22/12 3/20/11 1/19/10
f 1/19/10 15/21/11 16/22/12
f 15/26/13 1/24/13 17/23/13
f 17/23/13 18/25/13 15/26/13
f 20/30/13 6/28/15 8/27/14
f 8/27/14 19/29/15 20/30/13
f 33/45/17 15/44/17 18/43/17
f 18/43/17 34/46/17 33/45/17
f 35/48/18 33/47/18 34/50/18
f 34/50/18 36/49/18 35/48/18
f 38/54/19 37/53/19 8/52/19
f 8/52/19 7/51/19 38/54/19
f 40/57/20 39/56/21 37/55/20
f 37/55/20 38/58/20 40/57/20
f 41/61/22 4/60/22 3/59/22
f 3/59/22 42/62/22 41/61/22
f 43/64/23 41/63/23 42/66/23
f 42/66/23 44/65/23 43/64/23
f 46/70/24 45/69/24 13/68/24
f 13/68/24 12/67/24 46/70/24
f 48/73/25 47/72/25 45/71/25
f 45/71/25 46/74/25 48/73/25
f 50/76/18 49/75/18 33/47/18
f 33/47/18 35/48/18 50/76/18
f 49/78/17 16/77/17 15/44/17
f 15/44/17 33/45/17 49/78/17
f 51/81/24 46/80/24 12/79/24
f 12/79/24 14/82/24 51/81/24
f 52/85/25 48/84/25 46/83/25
f 46/83/25 51/86/25 52/85/25
f 47/87/25 54/90/25 53/89/25
f 53/89/25 45/88/25 47/87/25
f 45/91/24 53/94/24 55/93/24
f 55/93/24 13/92/24 45/91/24
f 34/46/17 18/43/17 57/96/17
f 57/96/17 56/95/17 34/46/17
f 36/49/18 34/50/18 56/98/18
f 56/98/18 58/97/18 36/49/18
f 59/101/19 38/100/19 7/99/19
f 7/99/19 10/102/19 59/101/19
f 60/105/20 40/104/20 38/103/20
f 38/103/20 59/106/20 60/105/20
f 52/108/23 51/107/23 41/63/23
f 41/63/23 43/64/23 52/108/23
f 51/110/22 14/109/22 4/60/22
f 4/60/22 41/61/22 51/110/22
f 42/112/26 3/111/26 16/114/26
f 16/114/26 49/113/26 42/112/26
f 44/116/1 42/115/27 49/118/1
f 49/118/1 50/117/28 44/116/1
f 39/119/21 62/122/21 61/121/21
f 61/121/21 37/120/21 39/119/21
f 37/123/19 61/126/19 19/125/19
f 19/125/19 8/124/19 37/123/19
f 32/130/22 44/128/22 50/127/22
f 50/127/22 21/129/22 32/130/22
f 21/134/17 50/132/17 35/131/17
f 35/131/17 22/133/17 21/134/17
f 23/138/17 36/136/17 58/135/17
f 58/135/17 24/137/17 23/138/17
f 64/142/19 62/140/19 39/139/19
f 39/139/19 63/141/19 64/142/19
f 22/133/17 35/131/17 36/136/17
f 36/136/17 23/138/17 22/133/17
f 63/146/19 39/144/19 40/143/19
f 40/143/19 65/145/19 63/146/19
f 31/141/22 43/139/22 44/128/22
f 44/128/22 32/130/22 31/141/22
f 30/142/22 52/140/22 43/139/22
f 43/139/22 31/141/22 30/142/22
f 29/150/24 48/148/24 52/147/24
f 52/147/24 30/149/24 29/150/24
f 28/152/24 47/151/24 48/148/24
f 48/148/24 29/150/24 28/152/24
f 27/154/24 54/153/24 47/151/24
f 47/151/24 28/152/24 27/154/24
f 65/130/19 40/128/19 60/127/19
f 60/127/19 66/129/19 65/130/19
f 66/158/16 27/156/16 26/155/16
f 26/155/16 65/157/16 66/158/16
f 65/157/16 26/155/16 25/159/16
f 25/159/16 63/160/16 65/157/16
f 64/149/17 24/137/17 58/135/17
f 58/135/17 62/147/17 64/149/17
f 63/160/16 25/159/16 24/161/16
f 24/161/16 64/162/16 63/160/16
f 62/166/18 58/164/18 56/163/18
f 56/163/18 61/165/18 62/166/18
f 10/170/30 55/168/29 53/167/24
f 53/167/24 59/169/29 10/170/30
f 59/174/25 53/172/25 54/171/25
f 54/171/25 60/173/25 59/174/25
f 60/132/24 54/153/24 27/154/24
f 27/154/24 66/134/24 60/132/24
f 9/175/33 13/175/32 55/175/31
f 55/175/31 10/175/32 9/175/33
f 5/179/8 11/177/8 13/176/8
f 13/176/8 9/178/8 5/179/8
f 6/183/12 17/181/12 11/180/12
f 11/180/12 5/182/12 6/183/12
f 20/187/13 18/185/13 17/184/13
f 17/184/13 6/186/13 20/187/13
f 19/188/17 57/188/34 18/188/31
f 18/188/31 20/188/34 19/188/17
f 61/192/17 56/190/17 57/189/17
f 57/189/17 19/191/17 61/192/17

