# ProBuilder 4.0.5
# https://unity3d.com/unity/features/worldbuilding/probuilder
# 30/10/2019 00:55:47

mtllib ./roof.mtl
o roof

g roof
v -0.46875 -0.5000401 -1.094353
v 0.46875 -0.5000401 -1.094353
v -0.5859375 -3.814697E-05 -1.430217
v 0.5859375 -3.814697E-05 -1.430217
v 0.46875 -0.499958 1.237141
v -0.46875 -0.499958 1.237141
v 0.5859375 4.196167E-05 1.440115
v -0.5859375 4.196167E-05 1.440115
v 1.171875 4.196167E-05 0.4252419
v 0.9375 -0.499958 0.4252419
v 1.171875 4.196167E-05 -0.239197
v 0.9375 -0.499958 -0.1063085
v -1.171875 4.196167E-05 -0.2391973
v -0.9375 -0.499958 -0.1063085
v -1.171875 4.196167E-05 0.4252417
v -0.9375 -0.499958 0.4252419
v -0.5859375 4.196167E-05 -1.254071
v -0.46875 -0.499958 -0.9182076
v 0.46875 -0.499958 -0.9182076
v 0.5859375 4.196167E-05 -1.254071
v -1.5 4.005432E-05 -0.4252388
v -0.75 4.005432E-05 -1.724277
v -1.5 0.5000401 -0.4252393
v -0.75 0.5000401 -1.724278
v 0.75 4.005432E-05 -1.724277
v 0.75 0.5000401 -1.724278
v 1.5 4.005432E-05 -0.4252388
v 1.5 0.5000401 -0.4252393
v 1.5 4.005432E-05 0.4252422
v 0.75 4.005432E-05 1.72428
v 1.5 0.5000401 0.4252417
v 0.75 0.5000401 1.72428
v -0.75 4.005432E-05 1.72428
v -0.75 0.5000401 1.72428
v -1.5 4.005432E-05 0.4252417
v -1.5 0.5000401 0.4252417

vt 0.75 1.512267
vt -0.75 1.512267
vt 0.9375 2.296314
vt -0.9375 2.296314
vt 0.7498912 0.6225023
vt -0.7501082 0.6230202
vt 0.9376082 1.250818
vt -0.9373912 1.251465
vt -2.852022 -0.476922
vt -1.993749 -0.6180065
vt -2.680997 0.5634909
vt -1.856929 0.2143226
vt 2.907431 0.2883301
vt 1.94931 0.2924765
vt 2.595874 -0.8826474
vt 1.700065 -0.6443042
vt 2.031055 3.018198
vt 1.382797 2.414374
vt 1.987183 3.267502
vt 1.338922 2.663678
vt -1.382796 2.414373
vt -2.031051 3.018196
vt -1.33892 2.663676
vt -1.987178 3.2675
vt 0.9375 4.643594
vt -0.9375 4.643594
vt 0.9375 4.925427
vt -0.9375 4.925427
vt 0.6137841 -0.2679085
vt 0.6137838 1.232091
vt 1.113784 -0.2679079
vt 1.113784 1.232092
vt 0.75 -0.4999584
vt -0.75 -0.4999584
vt 0.75 4.154444E-05
vt -0.75 4.154444E-05
vt -0.6137846 1.232089
vt -0.6137853 -0.2679099
vt -1.113785 1.23209
vt -1.113785 -0.2679092
vt -0.3682704 0.2500399
vt -0.3682705 -1.249962
vt -0.8682704 0.2500403
vt -0.8682704 -1.249962
vt 0.7499998 -0.4999609
vt -0.7499998 -0.4999609
vt 0.7499998 3.910065E-05
vt -0.7499998 3.910065E-05
vt 0.368271 -1.249963
vt 0.3682712 0.2500393
vt 0.868271 -1.249963
vt 0.8682712 0.2500391
vt -1.066989 -0.3582124
vt -0.5669888 -0.3582129
vt -1.066989 0.492269
vt -0.5669888 0.4922686
vt 1.066989 0.4922687
vt 0.566989 0.492268
vt 1.066989 -0.3582124
vt 0.5669894 -0.3582126
vt -1.5 -0.9252391
vt -0.7499998 -2.224276
vt 0.7499998 -2.224276
vt 1.5 -0.9252391
vt 1.5 -0.07475924
vt 0.7499998 1.224277
vt -0.7499998 1.224277
vt -1.5 -0.07475972
vt -2.159635 3.647857
vt -2.911171 4.118644
vt -2.392514 2.320875
vt -3.202271 2.459916
vt -1.305662 1.17149
vt -1.118379 0.5430456
vt 0.5693378 1.170843
vt 0.3816209 0.5425277
vt 2.911175 4.118645
vt 2.159635 3.647857
vt 3.202273 2.459915
vt 2.392513 2.320874
vt 3.291445 0.7087994
vt 2.361091 0.7351876
vt 2.741951 -1.356461
vt 1.921496 -0.9170205
vt -0.7504684 -0.6207885
vt 0.749531 -0.6213064
vt 0.7496018 -0.416191
vt 1.499928 0.5289809
vt 1.500142 1.147955
vt 0.7504684 2.093644
vt -0.749531 2.094162
vt -1.499857 1.14899
vt -1.500071 0.5300167
vt -0.7503976 -0.415673

vn 0 -0.5576044 -0.8301069
vn 0.4527295 -0.4244337 0.7841505
vn -0.4527295 -0.4244337 0.7841505
vn 0.879324 -0.4121831 0.2385257
vn 0.8574758 -0.4620868 -0.2262985
vn -0.8574758 -0.4620869 -0.2262985
vn -0.879324 -0.412183 0.2385256
vn -0.7836215 0.6212385 -0.000282531
vn -0.9736321 -0.2281241 0.000104983
vn 0.9736322 -0.2281237 0.0001062181
vn 0.7836211 0.621239 -0.000281537
vn -0.8660254 -4.768371E-07 -0.4999999
vn 0 -1.430511E-06 -1
vn 0.8660254 -7.152556E-07 -0.4999999
vn 0.8660254 4.768372E-07 0.5
vn 0.8660254 2.384186E-07 0.4999999
vn 0 0 1
vn -0.8660255 0 0.4999999
vn 1 0 0
vn -1 0 0
vn 0 -1 0
vn 0.7623904 -0.474357 -0.4401661
vn -0.7623906 -0.474357 -0.4401661
vn 0 -0.9999999 0.0004656161

g roof
usemtl Default-Material
f 29/65/21 30/66/21 21/61/21
f 22/62/21 29/65/21 21/61/21
f 27/64/21 29/65/21 22/62/21
f 27/64/21 22/62/21 25/63/21
f 21/61/21 30/66/21 35/68/21
f 35/68/21 30/66/21 33/67/21
f 10/89/21 5/90/21 14/93/21
f 18/94/21 10/89/21 14/93/21
f 12/88/21 10/89/21 18/94/21
f 12/88/21 18/94/21 19/87/24
f 18/94/21 1/85/24 19/87/24
f 1/85/24 2/86/24 19/87/24
f 14/93/21 5/90/21 16/92/21
f 16/92/21 5/90/21 6/91/21
f 4/4/1 2/2/1 1/1/1
f 1/1/1 3/3/1 4/4/1
f 8/8/3 6/6/3 5/5/2
f 5/5/2 7/7/2 8/8/3
f 11/11/5 9/9/4 10/10/4
f 10/10/4 12/12/5 11/11/5
f 15/15/7 13/13/6 14/14/6
f 14/14/6 16/16/7 15/15/7
f 1/20/9 18/18/9 17/17/8
f 17/17/8 3/19/8 1/20/9
f 4/24/11 20/22/11 19/21/10
f 19/21/10 2/23/10 4/24/11
f 3/28/8 17/26/8 20/25/11
f 20/25/11 4/27/11 3/28/8
f 24/32/12 22/30/12 21/29/12
f 21/29/12 23/31/12 24/32/12
f 26/36/13 25/34/13 22/33/13
f 22/33/13 24/35/13 26/36/13
f 28/40/14 27/38/14 25/37/14
f 25/37/14 26/39/14 28/40/14
f 32/44/16 30/42/16 29/41/15
f 29/41/15 31/43/16 32/44/16
f 34/48/17 33/46/17 30/45/17
f 30/45/17 32/47/17 34/48/17
f 36/52/18 35/50/18 33/49/18
f 33/49/18 34/51/18 36/52/18
f 28/55/19 31/53/19 29/54/19
f 29/54/19 27/56/19 28/55/19
f 36/59/20 23/57/20 21/58/20
f 21/58/20 35/60/20 36/59/20
f 12/71/5 19/69/22 20/70/22
f 20/70/22 11/72/5 12/71/5
f 9/75/4 7/73/2 5/74/2
f 5/74/2 10/76/4 9/75/4
f 13/79/6 17/77/23 18/78/23
f 18/78/23 14/80/6 13/79/6
f 8/83/3 15/81/7 16/82/7
f 16/82/7 6/84/3 8/83/3

