# ProBuilder 4.0.5
# https://unity3d.com/unity/features/worldbuilding/probuilder
# 30/10/2019 04:24:24

mtllib ./prism.mtl
o prism

g prism
v 7.000018 -1.25 -0.0001411438
v 16.00003 -1.25 -0.0001420975
v 7.00001 1.25 -0.0001430511
v 16.00003 -0.75 -0.0001478195
v 1.500017 -1.25 -0.0001420975
v 1.50001 1.25 -0.0001440048
v -4.999987 -1.25 -4.339218E-05
v -4.999994 1.25 -4.529953E-05
v -10.99999 -1.25 5.483627E-05
v -11 1.25 5.292892E-05
v -16.00002 -1.25 0.0001516342
v -16.00002 1.25 0.0001497269

vt 7.000018 -1.25
vt 16.00003 -1.25
vt 7.00001 1.25
vt 16.00003 -0.75
vt 1.500017 -1.25
vt 1.50001 1.25
vt -4.999987 -1.25
vt -4.999994 1.25
vt -10.99999 -1.25
vt -11 1.25
vt -16.00002 -1.25
vt -16.00002 1.25

vn 1.059637E-07 7.629398E-07 1

g prism
usemtl Default-Material
f 4/4/1 3/3/1 1/1/1 2/2/1
f 6/6/1 5/5/1 1/1/1 3/3/1
f 8/8/1 7/7/1 5/5/1 6/6/1
f 10/10/1 9/9/1 7/7/1 8/8/1
f 12/12/1 11/11/1 9/9/1 10/10/1

