# ProBuilder 4.0.5
# https://unity3d.com/unity/features/worldbuilding/probuilder
# 30/10/2019 05:09:19

mtllib ./railing.mtl
o railing

g railing
v 4.499976 0.599925 0.2500002
v -4.499977 -1.800025 0.2500001
v 4.499976 1.599925 0.2500002
v -4.499977 -0.800025 0.2500001
v -4.499977 -1.800025 -0.2499999
v 4.499976 0.599925 -0.2499999
v -4.499977 -0.800025 -0.2499999
v 4.499976 1.599925 -0.2499999
v -4.500077 -0.700025 0.1250001
v 4.500075 1.699925 0.1250002
v -4.500077 -0.5999249 -0.1249999
v -4.500077 -0.5999249 0.1250001
v 4.500075 1.800025 -0.1249998
v 4.500075 1.800025 0.1250002
v -4.500077 -0.700025 -0.1249999
v 4.500075 1.699925 -0.1249998

vt 4.499976 0.599925
vt -4.499977 -1.800025
vt 4.499976 1.599925
vt -4.499977 -0.800025
vt 4.499977 -1.800025
vt -4.499976 0.599925
vt 4.499977 -0.800025
vt -4.499976 1.599925
vt 4.528507 -0.1965961
vt 4.554175 -0.03858933
vt -4.786133 -0.1965959
vt -4.760272 -0.03862061
vt 4.502716 -0.1249999
vt 4.502716 0.1250001
vt -4.811924 -0.1249998
vt -4.811924 0.1250002
vt 4.554173 0.03860456
vt 4.528504 0.1966112
vt -4.760274 0.0386046
vt -4.786136 0.1965798
vt 4.500077 -0.700025
vt -4.500075 1.699925
vt 4.500077 -0.5999249
vt -4.500075 1.800025
vt 4.500075 1.699925
vt -4.500077 -0.700025
vt 4.500075 1.800025
vt -4.500077 -0.5999249
vt 4.502615 0.2500002
vt -4.811832 0.2500001
vt 4.502615 -0.2499999
vt -4.811832 -0.2499999

vn -9.934159E-09 0 1
vn 0 0 -1
vn -0.2038312 0.7643959 0.6116794
vn -0.2038761 0.7645472 0.6114754
vn -0.2576536 0.9662374 0
vn -0.2038355 0.7643952 -0.6116789
vn -0.2038718 0.7645481 -0.6114758
vn 0.2576589 -0.966236 0

g railing
usemtl Default-Material
f 3/3/1 4/4/1 2/2/1 1/1/1
f 7/7/2 8/8/2 6/6/2 5/5/2
f 3/12/4 10/11/3 9/9/3 4/10/3
f 14/16/5 13/15/5 11/13/5 12/14/5
f 16/20/7 8/19/6 7/17/6 15/18/6
f 11/23/2 13/24/2 16/22/2 15/21/2
f 14/27/1 12/28/1 9/26/1 10/25/1
f 5/32/8 6/31/8 1/29/8 2/30/8

