# ProBuilder 4.0.5
# https://unity3d.com/unity/features/worldbuilding/probuilder
# 30/10/2019 01:16:42

mtllib ./roof.mtl
o roof

g Arch
v -24.89774 -11.79013 0.8750494
v -9 -11.54013 0.8750491
v -8.693333 -8.71076 0.8750498
v -25.64774 -12.54013 -0.875051
v -7.943333 -9.424314 -0.8750514
v -8.25 -12.50369 -0.875051
v -7.794229 -6.540133 0.8750496
v -6.941971 -7.290133 -0.8750507
v -6.261703 -4.676172 0.8750503
v -5.511703 -5.426172 -0.8750509
v -24.89774 11.79007 0.8750503
v -4.397742 -3.245901 0.8750491
v -25.64774 12.54008 -0.875053
v -3.647742 -3.995901 -0.8750511
v -2.227114 -2.346799 0.8750501
v -1.477114 -3.096792 -0.8750512
v 0.1022577 11.79007 0.8750532
v 0.1022577 -2.040132 0.8750501
v 0.1022577 12.54007 -0.875053
v 0 -3.040125 -0.8750512
v 25 11.79006 0.8008449
v 2.329371 -2.346799 0.8750491
v 25.75 12.54009 -0.875053
v 1.579371 -3.096792 -0.8750512
v 4.5 -3.245904 0.8750491
v 3.75 -3.995904 -0.8750511
v 25 -11.79013 0.8750494
v 6.36396 -4.676172 0.8750494
v 25.75 -12.54013 -0.875051
v 5.61396 -5.426172 -0.8750509
v 7.794228 -6.540133 0.8750496
v 7.044228 -7.290133 -0.8750507
v 8.693333 -8.71076 0.8750498
v 7.943333 -9.46076 -0.8750514
v 9 -11.54013 0.8750491
v 8.25 -12.54013 -0.875051
v -8.25 -12.50369 0.1249491
v -7.943333 -9.424314 0.1249487
v -9 -11.54013 0.124949
v -8.693333 -8.71076 0.1249496
v -24.89774 -11.79013 0.124949
v -25.75 -12.54013 0.1249491
v -6.941971 -7.290133 0.1249495
v -7.794229 -6.540133 0.1249493
v -5.511703 -5.426172 0.1249492
v -6.261703 -4.676172 0.1249501
v -25.64774 12.54012 0.1249471
v -24.89774 11.79006 0.1249501
v -3.75 -3.995901 0.124949
v -4.397742 -3.245901 0.124949
v -1.579371 -3.096799 0.124949
v -2.227114 -2.346799 0.1249498
v 0.1022577 12.5401 0.124948
v 0.1022577 11.79006 0.1249529
v 0 -3.040128 0.1249489
v 0.1022577 -2.040132 0.1249498
v 25.75 12.54012 0.08784533
v 25 11.79005 0.05074465
v 1.579371 -3.096799 0.124949
v 2.329371 -2.346799 0.1249489
v 3.75 -3.995904 0.124949
v 4.5 -3.245904 0.124949
v 25.75 -12.54013 0.1249491
v 25 -11.79013 0.124949
v 5.61396 -5.426172 0.1249492
v 6.36396 -4.676172 0.1249491
v 7.044228 -7.290133 0.1249495
v 7.794228 -6.540133 0.1249493
v 7.943333 -9.46076 0.1249487
v 8.693333 -8.71076 0.1249496
v 8.25 -12.54013 0.1249491
v 9 -11.54013 0.124949

vt -24.89774 -11.79013
vt -9 -11.54013
vt -8.693333 -8.71076
vt 25.64774 -12.54013
vt 7.943333 -9.424314
vt 8.25 -12.50369
vt -7.794229 -6.540133
vt 6.941971 -7.290133
vt -6.261703 -4.676171
vt 5.511703 -5.426172
vt -24.89774 11.79007
vt -4.397742 -3.245901
vt 25.64774 12.54008
vt 3.647742 -3.995901
vt -2.227113 -2.346798
vt 1.477114 -3.096792
vt 0.1022578 11.79007
vt 0.1022578 -2.040131
vt -0.1022577 12.54007
vt -6.149577E-14 -3.040125
vt 0.09964918 11.79007
vt 24.9975 11.79006
vt 0.09964918 -2.040131
vt 2.326753 -2.346799
vt -25.75 12.54009
vt -1.579371 -3.096792
vt 24.99893 11.78737
vt 2.328226 -2.349557
vt 4.498853 -3.248667
vt -3.75 -3.995904
vt 24.99883 -11.79293
vt 6.362807 -4.678928
vt -25.75 -12.54013
vt -5.61396 -5.426172
vt 25 -11.79013
vt 6.36396 -4.676172
vt 7.794228 -6.540133
vt -7.044228 -7.290133
vt 8.693333 -8.71076
vt -7.943333 -9.46076
vt 9 -11.54013
vt -8.25 -12.54013
vt -5.013395 -9.837222
vt -5.230776 -12.92418
vt -5.936137 -12.87451
vt -5.718756 -9.787552
vt -6.467773 -11.9504
vt -6.250393 -9.112821
vt -24.89795 -8.286099
vt -9.000241 -8.0859
vt -8.250242 -8.766207
vt -25.7502 -8.817742
vt -8.24816 -9.473235
vt -25.64587 -9.52462
vt -4.559062 -8.547728
vt -5.301408 -10.78522
vt -5.972542 -10.56256
vt -5.230196 -8.325062
vt -6.528545 -10.03313
vt -5.862006 -7.78149
vt -3.774024 -6.667389
vt -4.894499 -8.732468
vt -5.516015 -8.395244
vt -4.395539 -6.330165
vt -6.183675 -7.946297
vt -4.983091 -5.85386
vt -17.83795 -12.54013
vt -17.83795 12.54009
vt -17.09575 12.54012
vt -17.16428 -12.54013
vt -16.59311 11.79006
vt -16.59311 -11.79013
vt -2.731786 -4.751437
vt -4.349727 -6.455048
vt -4.84627 -5.983475
vt -3.317089 -4.307449
vt -5.49728 -5.556131
vt -3.879338 -3.85252
vt -1.084017 -3.23108
vt -3.121087 -4.40171
vt -3.562413 -3.823345
vt -1.525345 -2.652721
vt -4.1703 -3.390561
vt -2.133232 -2.219936
vt 25.64775 -9.485783
vt -0.1022508 -9.485783
vt -0.1022508 -8.778684
vt 25.64775 -8.778686
vt -0.1022512 -8.248333
vt 24.89775 -8.248325
vt 0.0335207 -2.769115
vt -1.442509 -2.849195
vt -1.582999 -2.145899
vt -0.004786432 -2.063047
vt -2.230265 -1.632712
vt 0.0973962 -1.352657
vt 0.1035228 9.692385
vt 25.75124 9.666855
vt 25.74985 9.00353
vt 0.102077 9.003499
vt 24.9999 8.486149
vt 0.102077 8.459831
vt 1.546998 -2.849118
vt -0.03135855 -2.769027
vt 0.004477699 -2.062828
vt 1.582835 -2.142923
vt 0.1066698 -1.357862
vt 2.332353 -1.631247
vt 3.189553 -4.43484
vt 1.162299 -3.247291
vt 1.519708 -2.637167
vt 3.546962 -3.82471
vt 2.220169 -2.244446
vt 4.247423 -3.43199
vt 18.81373 12.52168
vt 18.81373 -12.55853
vt 18.1061 -12.55927
vt 18.13235 12.521
vt 17.57616 -11.80871
vt 17.62867 11.77152
vt 4.340281 -6.548855
vt 2.748135 -4.821115
vt 3.268123 -4.341936
vt 4.860269 -6.069675
vt 3.908753 -3.939846
vt 5.500898 -5.667585
vt 4.974607 -8.759824
vt 3.854132 -6.694746
vt 4.475647 -6.357522
vt 5.596122 -8.422601
vt 5.063199 -5.881217
vt 6.183674 -7.946296
vt 5.240646 -10.74034
vt 4.580245 -8.485592
vt 5.258843 -8.286835
vt 5.919244 -10.54158
vt 5.809726 -7.702536
vt 6.470127 -9.957283
vt 5.230781 -12.96054
vt 5.0134 -9.873579
vt 5.71876 -9.823909
vt 5.936141 -12.91087
vt 6.250397 -9.112822
vt 6.467778 -11.9504
vt 9 -8.071754
vt 25 -8.248531
vt 25.75 -8.778862
vt 8.25 -8.778862
vt 25.75 -9.485969
vt 8.25 -9.485969
vt 25.18115 0.124949
vt 9.179194 0.124949
vt 25.18115 0.8750494
vt 9.179194 0.8750491
vt 0.124949 -12.44274
vt 0.1249496 -9.596799
vt 0.8750491 -12.44274
vt 0.8750498 -9.596799
vt 0.1249496 -11.37449
vt 0.1249493 -9.02502
vt 0.8750498 -11.37449
vt 0.8750496 -9.02502
vt 0.1249493 -9.933461
vt 0.1249491 -7.58399
vt 0.8750496 -9.933461
vt 0.8750494 -7.58399
vt 7.895542 0.1249491
vt 5.546072 0.124949
vt 7.895542 0.8750494
vt 5.546072 0.8750491
vt -0.05074465 11.79005
vt -0.124949 -11.79013
vt -0.8008449 11.79006
vt -0.8750494 -11.79013
vt 5.399612 0.124949
vt 3.050141 0.1249489
vt 5.399612 0.8750491
vt 3.050141 0.8750491
vt 2.627725 0.1249489
vt 0.3795964 0.1249498
vt 2.627725 0.8750491
vt 0.3795964 0.8750501
vt -0.1022545 0.1250728
vt -25 0.05086457
vt -0.1022545 0.8751731
vt -25 0.8009648
vt -0.1649075 0.1249498
vt -2.514379 0.1249498
vt -0.1649075 0.8750501
vt -2.514379 0.8750501
vt 24.89774 0.12507
vt 24.89774 0.8751702
vt -2.955665 0.1249498
vt -5.305136 0.124949
vt -2.955665 0.8750501
vt -5.305136 0.8750491
vt -5.464942 0.124949
vt -7.814416 0.1249501
vt -5.464942 0.8750491
vt -7.814416 0.8750503
vt 0.124949 -11.79013
vt 0.1249501 11.79006
vt 0.8750494 -11.79013
vt 0.8750503 11.79007
vt -0.1249501 -7.588797
vt -0.1249493 -10.00188
vt -0.8750503 -7.588797
vt -0.8750496 -10.00188
vt -0.1249493 -9.025018
vt -0.1249496 -11.37449
vt -0.8750496 -9.025018
vt -0.8750498 -11.37449
vt -0.1249496 -9.596799
vt -0.124949 -12.44274
vt -0.8750498 -9.596799
vt -0.8750491 -12.44274
vt -9.18034 0.124949
vt -25.08005 0.124949
vt -9.18034 0.8750491
vt -25.08005 0.8750494

vn 1.6894E-08 -1.651951E-07 1
vn 1.120114E-08 -2.140919E-08 -1
vn 0.001490235 -2.181769E-07 0.9999989
vn 0.0008932397 0.001074575 0.999999
vn 0.001468146 0.002816731 0.9999949
vn 0.0009493947 0.003726449 0.9999926
vn 0.000981131 0.002363772 0.9999967
vn 0.0001639897 0.0003934162 0.9999999
vn 0.9640415 -0.2657517 0
vn 0.9950777 -0.09909737 0
vn 0.002088722 -0.9999978 0.0001064801
vn -0.7026959 -0.7078449 -0.07193121
vn -0.7057142 -0.7075859 -0.03591269
vn 0.8542953 -0.519788 7.299451E-08
vn 0.7119043 -0.7021018 0.0156594
vn 0.7167405 -0.69734 2.594465E-07
vn -0.7050083 0.7082861 -0.03597398
vn -0.7056636 0.708547 -2.162313E-05
vn 0.4992823 -0.864934 0.0510535
vn 0.5055989 -0.8620409 0.03542937
vn 0.2131402 -0.9768004 0.02079311
vn 0.2125302 -0.9769129 0.02172714
vn -1.609521E-07 1 -3.081153E-05
vn 0.001106558 -0.01270977 0.9999186
vn 0.001240222 -0.9999992 -2.861021E-06
vn 0.0006200375 -0.9999994 0.0009120835
vn 0.7071065 0.7071071 -2.241067E-05
vn -0.0120508 -0.02428158 0.9996325
vn -0.02518066 -0.01114515 0.9996208
vn -0.2126472 -0.977129 -4.453777E-06
vn -0.5000016 -0.8660245 9.539112E-08
vn 0.7071068 -0.7071068 0
vn 0.0007396226 0.0007397698 0.9999995
vn -0.01276902 0.001155869 0.9999178
vn -0.7071068 -0.7071067 3.371747E-07
vn -0.8660252 -0.5000003 7.319623E-08
vn -0.9698991 -0.243507 0
vn -0.9950777 -0.09909737 0
vn 0 -1 0
vn -0.01562309 -0.999878 0
vn -0.9941774 -0.107756 0
vn -0.96883 -0.2477263 0
vn 1 0 0
vn -0.2616856 -0.9651532 0
vn -0.002968548 -0.9999956 0
vn 0.2588186 -0.9659259 0
vn 0.5000002 -0.8660253 0
vn 0.6951193 -0.7188944 0
vn -1 0 0
vn 0.8574969 -0.5144892 0
vn 0.9688301 -0.2477261 0
vn 0.9941774 -0.107756 0
vn 0.01572356 -0.9998764 0

g Arch
usemtl Default-Material
f 2/2/1 3/3/1 1/1/1
f 5/5/2 6/6/2 4/4/2
f 3/3/1 7/7/1 1/1/1
f 8/8/2 5/5/2 4/4/2
f 7/7/1 9/9/1 1/1/1
f 10/10/2 8/8/2 4/4/2
f 12/12/1 15/15/1 11/11/1
f 16/16/2 14/14/2 13/13/2
f 22/28/6 25/29/7 21/27/5
f 26/30/2 24/26/2 23/25/2
f 28/36/1 31/37/1 27/35/8
f 32/38/2 30/34/2 29/33/2
f 31/37/1 33/39/1 27/35/8
f 34/40/2 32/38/2 29/33/2
f 33/39/1 35/41/1 27/35/8
f 36/42/2 34/40/2 29/33/2
f 12/12/1 11/11/1 1/1/1
f 1/1/1 9/9/1 12/12/1
f 10/10/2 4/4/2 13/13/2
f 13/13/2 14/14/2 10/10/2
f 18/18/4 17/17/3 11/11/1
f 11/11/1 15/15/1 18/18/4
f 16/16/2 13/13/2 19/19/2
f 19/19/2 20/20/2 16/16/2
f 22/24/6 21/22/5 17/21/3
f 17/21/3 18/23/4 22/24/6
f 20/20/2 19/19/2 23/25/2
f 23/25/2 24/26/2 20/20/2
f 28/32/1 27/31/8 21/27/5
f 21/27/5 25/29/7 28/32/1
f 26/30/2 23/25/2 29/33/2
f 29/33/2 30/34/2 26/30/2
f 6/44/10 5/43/9 38/46/9
f 38/46/9 37/45/10 6/44/10
f 39/47/1 37/45/1 38/46/1
f 38/46/1 40/48/1 39/47/1
f 39/50/1 41/49/1 42/52/1
f 42/52/1 37/51/1 39/50/1
f 37/51/11 42/52/13 4/54/12
f 4/54/12 6/53/11 37/51/11
f 38/57/9 5/56/9 8/55/14
f 8/55/14 43/58/14 38/57/9
f 40/59/1 38/57/1 43/58/1
f 43/58/1 44/60/1 40/59/1
f 43/63/14 8/62/14 10/61/15
f 10/61/15 45/64/16 43/63/14
f 43/63/1 45/64/1 46/66/1
f 46/66/1 44/65/1 43/63/1
f 13/68/17 4/67/12 42/70/13
f 42/70/13 47/69/18 13/68/17
f 42/70/1 41/72/1 48/71/1
f 48/71/1 47/69/1 42/70/1
f 10/74/15 14/73/19 49/76/20
f 49/76/20 45/75/16 10/74/15
f 45/75/1 49/76/1 50/78/1
f 50/78/1 46/77/1 45/75/1
f 14/80/19 16/79/21 51/82/22
f 51/82/22 49/81/20 14/80/19
f 52/84/1 50/83/1 49/81/1
f 49/81/1 51/82/1 52/84/1
f 19/86/23 13/85/17 47/88/18
f 47/88/18 53/87/23 19/86/23
f 53/87/24 47/88/1 48/90/1
f 48/90/1 54/89/3 53/87/24
f 16/92/21 20/91/25 55/94/26
f 55/94/26 51/93/22 16/92/21
f 56/96/1 52/95/1 51/93/1
f 51/93/1 55/94/1 56/96/1
f 57/99/27 23/98/27 19/97/23
f 19/97/23 53/100/23 57/99/27
f 58/101/29 57/99/28 53/100/24
f 53/100/24 54/102/3 58/101/29
f 24/103/30 59/106/30 55/105/26
f 55/105/26 20/104/25 24/103/30
f 60/108/1 56/107/1 55/105/1
f 55/105/1 59/106/1 60/108/1
f 24/110/30 26/109/31 61/112/31
f 61/112/31 59/111/30 24/110/30
f 62/114/1 60/113/1 59/111/1
f 59/111/1 61/112/1 62/114/1
f 23/115/27 57/118/27 63/117/32
f 63/117/32 29/116/32 23/115/27
f 64/119/34 63/117/33 57/118/28
f 57/118/28 58/120/29 64/119/34
f 65/124/35 61/123/31 26/122/31
f 26/122/31 30/121/35 65/124/35
f 65/124/1 66/126/1 62/125/1
f 62/125/1 61/123/1 65/124/1
f 30/128/35 32/127/36 67/130/36
f 67/130/36 65/129/35 30/128/35
f 65/129/1 67/130/1 68/132/1
f 68/132/1 66/131/1 65/129/1
f 34/133/37 69/136/37 67/135/36
f 67/135/36 32/134/36 34/133/37
f 69/136/1 70/138/1 68/137/1
f 68/137/1 67/135/1 69/136/1
f 34/140/37 36/139/38 71/142/38
f 71/142/38 69/141/37 34/140/37
f 69/141/1 71/142/1 72/144/1
f 72/144/1 70/143/1 69/141/1
f 71/148/1 63/147/33 64/146/34
f 64/146/34 72/145/1 71/148/1
f 36/150/39 29/149/32 63/147/32
f 63/147/32 71/148/39 36/150/39
f 35/154/40 72/152/40 64/151/40
f 64/151/40 27/153/40 35/154/40
f 33/158/42 70/156/42 72/155/41
f 72/155/41 35/157/41 33/158/42
f 31/162/36 68/160/36 70/159/42
f 70/159/42 33/161/42 31/162/36
f 28/166/35 66/164/35 68/163/36
f 68/163/36 31/165/36 28/166/35
f 25/170/31 62/168/31 66/167/35
f 66/167/35 28/169/35 25/170/31
f 27/174/43 64/172/43 58/171/43
f 58/171/43 21/173/43 27/174/43
f 22/178/44 60/176/44 62/175/31
f 62/175/31 25/177/31 22/178/44
f 18/182/45 56/180/45 60/179/44
f 60/179/44 22/181/44 18/182/45
f 21/186/23 58/184/23 54/183/23
f 54/183/23 17/185/23 21/186/23
f 15/190/46 52/188/46 56/187/45
f 56/187/45 18/189/45 15/190/46
f 17/185/23 54/183/23 48/191/23
f 48/191/23 11/192/23 17/185/23
f 12/196/47 50/194/47 52/193/46
f 52/193/46 15/195/46 12/196/47
f 9/200/48 46/198/48 50/197/47
f 50/197/47 12/199/47 9/200/48
f 11/204/49 48/202/49 41/201/49
f 41/201/49 1/203/49 11/204/49
f 7/208/50 44/206/50 46/205/48
f 46/205/48 9/207/48 7/208/50
f 3/212/51 40/210/51 44/209/50
f 44/209/50 7/211/50 3/212/51
f 2/216/52 39/214/52 40/213/51
f 40/213/51 3/215/51 2/216/52
f 1/220/53 41/218/53 39/217/53
f 39/217/53 2/219/53 1/220/53

