# ProBuilder 4.0.5
# https://unity3d.com/unity/features/worldbuilding/probuilder
# 30/10/2019 04:42:44

mtllib ./steps-low.mtl
o steps-low

g steps
v -3.5 -1.25 -4.874901
v 3.5 -1.25 -4.874901
v -3.5 -1.09375 -4.874901
v 3.5 -1.09375 -4.874901
v -3.5 -1.09375 -4.249901
v 3.5 -1.09375 -4.249901
v -3.5 -0.9375 -4.249901
v 3.5 -0.9375 -4.249901
v -3.5 -0.9375 -3.624901
v 3.5 -0.9375 -3.624901
v -3.5 -0.78125 -3.624901
v 3.5 -0.78125 -3.624901
v -3.5 -0.78125 -2.999901
v 3.5 -0.78125 -2.999901
v -3.5 -0.625 -2.999901
v 3.5 -0.625 -2.999901
v -3.5 -0.625 -2.374901
v 3.5 -0.625 -2.374901
v -3.5 -0.46875 -2.374901
v 3.5 -0.46875 -2.374901
v -3.5 -0.46875 -1.749901
v 3.5 -0.46875 -1.749901
v -3.5 -0.3125 -1.749901
v 3.5 -0.3125 -1.749901
v -3.5 -0.3125 -1.124901
v 3.5 -0.3125 -1.124901
v -3.5 -0.15625 -1.124901
v 3.5 -0.15625 -1.124901
v -3.5 -0.15625 -0.4999008
v 3.5 -0.15625 -0.4999008
v -3.5 0 -0.4999008
v 3.5 0 -0.4999008
v -3.5 0 0.1250992
v 3.5 0 0.1250992
v -3.5 0.15625 0.1250992
v 3.5 0.15625 0.1250992
v -3.5 0.15625 0.7500992
v 3.5 0.15625 0.7500992
v -3.5 0.3125 0.7500992
v 3.5 0.3125 0.7500992
v -3.5 0.3125 1.375099
v 3.5 0.3125 1.375099
v -3.5 0.46875 1.375099
v 3.5 0.46875 1.375099
v -3.5 0.46875 2.000099
v 3.5 0.46875 2.000099
v -3.5 0.625 2.000099
v 3.5 0.625 2.000099
v -3.5 0.625 2.625099
v 3.5 0.625 2.625099
v -3.5 0.78125 2.625099
v 3.5 0.78125 2.625099
v -3.5 0.78125 3.250099
v 3.5 0.78125 3.250099
v -3.5 0.9375 3.250099
v 3.5 0.9375 3.250099
v -3.5 0.9375 3.875099
v 3.5 0.9375 3.875099
v -3.5 1.09375 3.875099
v 3.5 1.09375 3.875099
v -3.5 1.09375 4.500099
v 3.5 1.09375 4.500099
v -3.5 1.25 4.500099
v 3.5 1.25 4.500099
v 3.5 1.25 5.124999
v -3.5 1.25 5.124999
v -3.5 -1.25 -5.125001
v 3.5 -1.25 -5.125001

vt 3.5 -1.25
vt -3.5 -1.25
vt 3.5 -1.09375
vt -3.5 -1.09375
vt 3.5 -4.874901
vt -3.5 -4.874901
vt 3.5 -4.249901
vt -3.5 -4.249901
vt 3.5 -0.9375
vt -3.5 -0.9375
vt 3.5 -3.624901
vt -3.5 -3.624901
vt 3.5 -0.78125
vt -3.5 -0.78125
vt 3.5 -2.999901
vt -3.5 -2.999901
vt 3.5 -0.625
vt -3.5 -0.625
vt 3.5 -2.374901
vt -3.5 -2.374901
vt 3.5 -0.46875
vt -3.5 -0.46875
vt 3.5 -1.749901
vt -3.5 -1.749901
vt 3.5 -0.3125
vt -3.5 -0.3125
vt 3.5 -1.124901
vt -3.5 -1.124901
vt 3.5 -0.15625
vt -3.5 -0.15625
vt 3.5 -0.4999008
vt -3.5 -0.4999008
vt 3.5 0
vt -3.5 0
vt 3.5 0.1250992
vt -3.5 0.1250992
vt 3.5 0.15625
vt -3.5 0.15625
vt 3.5 0.7500992
vt -3.5 0.7500992
vt 3.5 0.3125
vt -3.5 0.3125
vt 3.5 1.375099
vt -3.5 1.375099
vt 3.5 0.46875
vt -3.5 0.46875
vt 3.5 2.000099
vt -3.5 2.000099
vt 3.5 0.625
vt -3.5 0.625
vt 3.5 2.625099
vt -3.5 2.625099
vt 3.5 0.78125
vt -3.5 0.78125
vt 3.5 3.250099
vt -3.5 3.250099
vt 3.5 0.9375
vt -3.5 0.9375
vt 3.5 3.875099
vt -3.5 3.875099
vt 3.5 1.09375
vt -3.5 1.09375
vt 3.5 4.500099
vt -3.5 4.500099
vt 3.5 1.25
vt -3.5 1.25
vt -3.5 5.124999
vt 3.5 5.124999
vt 3.5 -5.125001
vt -3.5 -5.125001

vn 0 0 -1
vn 0 1 0

g steps
usemtl Default-Material
f 3/3/1 4/4/1 2/2/1 1/1/1
f 5/7/2 6/8/2 4/6/2 3/5/2
f 7/9/1 8/10/1 6/4/1 5/3/1
f 9/11/2 10/12/2 8/8/2 7/7/2
f 11/13/1 12/14/1 10/10/1 9/9/1
f 13/15/2 14/16/2 12/12/2 11/11/2
f 15/17/1 16/18/1 14/14/1 13/13/1
f 17/19/2 18/20/2 16/16/2 15/15/2
f 19/21/1 20/22/1 18/18/1 17/17/1
f 21/23/2 22/24/2 20/20/2 19/19/2
f 23/25/1 24/26/1 22/22/1 21/21/1
f 25/27/2 26/28/2 24/24/2 23/23/2
f 27/29/1 28/30/1 26/26/1 25/25/1
f 29/31/2 30/32/2 28/28/2 27/27/2
f 31/33/1 32/34/1 30/30/1 29/29/1
f 33/35/2 34/36/2 32/32/2 31/31/2
f 35/37/1 36/38/1 34/34/1 33/33/1
f 37/39/2 38/40/2 36/36/2 35/35/2
f 39/41/1 40/42/1 38/38/1 37/37/1
f 41/43/2 42/44/2 40/40/2 39/39/2
f 43/45/1 44/46/1 42/42/1 41/41/1
f 45/47/2 46/48/2 44/44/2 43/43/2
f 47/49/1 48/50/1 46/46/1 45/45/1
f 49/51/2 50/52/2 48/48/2 47/47/2
f 51/53/1 52/54/1 50/50/1 49/49/1
f 53/55/2 54/56/2 52/52/2 51/51/2
f 55/57/1 56/58/1 54/54/1 53/53/1
f 57/59/2 58/60/2 56/56/2 55/55/2
f 59/61/1 60/62/1 58/58/1 57/57/1
f 61/63/2 62/64/2 60/60/2 59/59/2
f 63/65/1 64/66/1 62/62/1 61/61/1
f 66/68/2 65/67/2 64/64/2 63/63/2
f 68/70/2 67/69/2 1/5/2 2/6/2

