# ProBuilder 4.0.5
# https://unity3d.com/unity/features/worldbuilding/probuilder
# 30/10/2019 04:37:06

mtllib ./urn.mtl
o urn

g urn
v 2.5 1.281325 0.5
v -2.5 1.281325 0.5
v 2.5 1.281325 -0.5
v -2.5 1.281325 -0.5
v 2.875 -1.281325 -0.875
v -2.875 -1.281325 -0.875
v 2.875 -1.281325 0.875
v -2.875 -1.281325 0.875
v 2.875 -0.8437247 0.875
v -2.875 -0.8437247 0.875
v -2.75 -0.7187247 0.75
v 2.75 -0.7187247 0.75
v -2.875 -0.8437247 -0.875
v -2.75 -0.7187247 -0.75
v 2.875 -0.8437247 -0.875
v 2.75 -0.7187247 -0.75
v -2.75 -0.5312247 0.75
v 2.75 -0.5312247 0.75
v -2.75 -0.5312247 -0.75
v 2.75 -0.5312247 -0.75
v -2.625 -0.5312247 0.625
v 2.625 -0.5312247 0.625
v -2.625 -0.5312247 -0.625
v 2.625 -0.5312247 -0.625
v -2.625 0.8437753 0.625
v 2.625 0.8437753 0.625
v -2.875 1.031225 0.875
v 2.875 1.031225 0.875
v -2.625 0.8437753 -0.625
v -2.875 1.031225 -0.875
v 2.625 0.8437753 -0.625
v 2.875 1.031225 -0.875
v 2.625 1.156325 0.625
v -2.625 1.156325 0.625
v 2.625 1.156325 -0.625
v -2.625 1.156325 -0.625
v 2.5 1.156225 0.5
v -2.5 1.156225 0.5
v 2.5 1.156225 -0.5
v -2.5 1.156225 -0.5

vt -2.5 0.5
vt 2.5 0.5
vt -2.5 -0.5
vt 2.5 -0.5
vt 2.875 -0.875
vt -2.875 -0.875
vt 2.875 0.875
vt -2.875 0.875
vt 2.875 -1.045118
vt -2.875 -1.045118
vt -2.75 -0.8915066
vt 2.75 -0.8915066
vt 0.875 -1.574131
vt -0.875 -1.574131
vt -0.75 -1.42052
vt 0.75 -1.42052
vt -2.75 -0.7106847
vt 2.75 -0.7106847
vt -0.75 -1.239698
vt 0.75 -1.239698
vt -2.625 -0.6776213
vt 2.625 -0.6776213
vt -0.625 -1.206635
vt 0.625 -1.206635
vt -2.875 -0.8437247
vt 2.875 -0.8437247
vt -2.875 -1.281325
vt 2.875 -1.281325
vt -0.875 -0.8437247
vt 0.875 -0.8437247
vt -0.875 -1.281325
vt 0.875 -1.281325
vt -2.625 0.6484065
vt 2.625 0.6484065
vt -2.875 0.7630535
vt 2.875 0.7630535
vt -0.625 0.1193929
vt 0.625 0.1193929
vt -0.875 0.2340399
vt 0.875 0.2340399
vt -2.875 0.3210259
vt 2.875 0.3210259
vt -2.625 0.04147277
vt 2.625 0.04147277
vt -2.109596 -0.875
vt -2.109596 0.875
vt -1.830043 -0.625
vt -1.830043 0.625
vt 2.109594 0.875
vt 2.109594 -0.875
vt 1.830041 0.625
vt 1.830041 -0.625
vt 2.875 -0.321027
vt -2.875 -0.321027
vt 2.625 -0.04147385
vt -2.625 -0.04147385
vt -2.625 0.6259239
vt 2.625 0.6259239
vt -2.5 0.5009239
vt 2.5 0.5009239
vt -2.625921 -0.6249998
vt -2.625921 0.6250002
vt -2.500921 -0.4999998
vt -2.500921 0.5000002
vt 2.625923 0.6250002
vt 2.625923 -0.6249998
vt 2.500923 0.5000002
vt 2.500923 -0.4999998
vt 2.625 -0.6259217
vt -2.625 -0.6259217
vt 2.5 -0.5009217
vt -2.5 -0.5009217
vt 2.5 1.156225
vt -2.5 1.156225
vt 2.5 1.281325
vt -2.5 1.281325
vt 0.5 1.156225
vt -0.5 1.156225
vt 0.5 1.281325
vt -0.5 1.281325

vn 0 1 0
vn 0 -1 0
vn 0 0.7071068 0.7071068
vn -0.7071068 0.7071068 0
vn 0 0.7071068 -0.7071068
vn 0.7071068 0.7071068 0
vn 0 0 1
vn -1 0 0
vn 0 0 -1
vn 1 0 0
vn 0 -0.8000769 0.5998974
vn -0.5998974 -0.8000769 0
vn 0 -0.8000769 -0.5998974
vn 0.5998974 -0.8000769 0
vn 0 0.8942842 0.4474995
vn 0.4474988 0.8942845 0
vn -0.4474995 0.8942842 0
vn 0 0.8942845 -0.4474988
vn 0 0.9999997 -0.0007991788
vn -0.0007974622 0.9999997 -1.907348E-07
vn 0.0007989881 0.9999997 -1.907348E-07
vn 0 0.9999997 0.0007972715

g urn
usemtl Default-Material
f 3/3/1 4/4/1 2/2/1 1/1/1
f 7/7/2 8/8/2 6/6/2 5/5/2
f 12/12/3 11/11/3 10/10/3 9/9/3
f 11/16/4 14/15/4 13/14/4 10/13/4
f 13/9/5 14/12/5 16/11/5 15/10/5
f 15/13/6 16/16/6 12/15/6 9/14/6
f 18/18/7 17/17/7 11/11/7 12/12/7
f 17/20/8 19/19/8 14/15/8 11/16/8
f 14/12/9 19/18/9 20/17/9 16/11/9
f 16/16/10 20/20/10 18/19/10 12/15/10
f 22/22/1 21/21/1 17/17/1 18/18/1
f 21/24/1 23/23/1 19/19/1 17/20/1
f 19/18/1 23/22/1 24/21/1 20/17/1
f 20/20/1 24/24/1 22/23/1 18/19/1
f 5/27/9 6/28/9 13/26/9 15/25/9
f 7/31/10 5/32/10 15/30/10 9/29/10
f 6/31/8 8/32/8 10/30/8 13/29/8
f 8/27/7 7/28/7 9/26/7 10/25/7
f 26/34/7 25/33/7 21/21/7 22/22/7
f 28/36/11 27/35/11 25/33/11 26/34/11
f 25/38/8 29/37/8 23/23/8 21/24/8
f 27/40/12 30/39/12 29/37/12 25/38/12
f 23/22/9 29/34/9 31/33/9 24/21/9
f 29/34/13 30/36/13 32/35/13 31/33/13
f 24/24/10 31/38/10 26/37/10 22/23/10
f 31/38/14 32/40/14 28/39/14 26/37/14
f 33/43/15 34/44/15 27/42/15 28/41/15
f 35/47/16 33/48/16 28/46/16 32/45/16
f 34/51/17 36/52/17 30/50/17 27/49/17
f 36/55/18 35/56/18 32/54/18 30/53/18
f 37/59/19 38/60/19 34/58/19 33/57/19
f 39/63/20 37/64/20 33/62/20 35/61/20
f 38/67/21 40/68/21 36/66/21 34/65/21
f 40/71/22 39/72/22 35/70/22 36/69/22
f 1/75/7 2/76/7 38/74/7 37/73/7
f 3/79/10 1/80/10 37/78/10 39/77/10
f 2/79/8 4/80/8 40/78/8 38/77/8
f 4/75/9 3/76/9 39/74/9 40/73/9

