# ProBuilder 4.0.5
# https://unity3d.com/unity/features/worldbuilding/probuilder
# 30/10/2019 01:19:15

mtllib ./wall.mtl
o wall

g Arch-detach
v 18.375 5.750779 -6.734719
v 24.5 5.750781 -6.734723
v 18.375 -5.75078 -6.734727
v 24.5 -5.750781 -6.734731
v -24.5 5.750003 -6.734715
v -18.375 5.750001 -6.734712
v -24.5 -5.750005 -6.734723
v -18.375 -5.750004 -6.734719
v 24.5 -5.750007 2.515242
v 24.5 5.750016 2.515243
v -24.5 5.750014 2.515243
v -24.5 -5.750008 2.515242
v 17.12034 5.75001 -3.134514
v 17.12035 -5.750006 -3.134518
v 18.375 -5.75078 -6.734727
v 14.86568 5.750002 0.465687
v 14.86569 -5.750003 0.4656871
v 11.27193 5.750009 3.600205
v 11.27194 -5.750005 3.600204
v 6.678183 5.750009 5.734721
v 6.678185 -5.750004 5.73472
v -2.861023E-06 5.750003 6.734722
v -2.861023E-06 -5.750003 6.734723
v -6.67819 5.750009 5.734721
v -6.67819 -5.750004 5.73472
v -11.27194 5.750009 3.600205
v -11.27194 -5.750005 3.600204
v -14.86569 5.750002 0.465687
v -14.86569 -5.750003 0.4656871
v -17.12035 5.75001 -3.134514
v -17.12035 -5.750006 -3.134518

vt 24.50001 -5.750763
vt 32.66668 -5.750765
vt 24.50001 5.750794
vt 32.66668 5.750795
vt -32.66668 -5.749988
vt -24.50002 -5.749986
vt -32.66668 5.750019
vt -24.50002 5.750018
vt -5.750781 -13.46945
vt 5.750779 -13.46943
vt -5.750006 5.03048
vt 5.750015 5.030478
vt -5.750002 -13.46942
vt 5.750005 -13.46943
vt -5.750766 -20.33769
vt -5.749999 -12.97133
vt 5.750016 -12.97134
vt 5.750791 -20.3377
vt -5.749993 -5.195837
vt 5.750011 -5.195833
vt 13.67589 -5.749997
vt 5.879624 -5.750003
vt 5.879625 5.75001
vt 13.6759 5.750008
vt -1.497107 -5.750003
vt -1.497106 5.750008
vt 8.904243 -5.750006
vt -4.020408E-06 -5.75
vt -4.020408E-06 5.750005
vt 8.904243 5.750006
vt -8.904253 -5.750006
vt -8.904253 5.750006
vt 1.497103 -5.750003
vt -5.879628 -5.750002
vt -5.87963 5.75001
vt 1.497101 5.750009
vt -13.6759 -5.749996
vt -13.6759 5.750008
vt 5.749992 -5.195845
vt 5.749997 -12.97134
vt -5.750017 -12.97135
vt -5.750012 -5.195842
vt 5.749988 -20.33768
vt -5.750016 -20.33769

vn -7.006585E-07 1.137525E-06 -0.5000005
vn 0.75 0 0
vn -0.75 0 0
vn -0.7305427 -4.591041E-07 -0.1131517
vn -0.7138156 -4.645039E-07 -0.1534309
vn -0.6493456 -3.691659E-07 -0.2502004
vn -0.518558 -3.061122E-07 -0.3612314
vn -0.3022703 -1.938876E-07 -0.4575945
vn 0.3022703 -2.471971E-07 -0.4575945
vn 0.5185581 -3.634497E-07 -0.3612313
vn 0.6493457 -4.629375E-07 -0.2502003
vn 0.7138156 -3.834439E-07 -0.153431
vn 0.7305427 -2.975774E-07 -0.113152

g Arch-detach
usemtl Default-Material
f 4/4/1 3/3/1 1/1/1 2/2/1
f 8/8/1 7/7/1 5/5/1 6/6/1
f 10/12/2 9/11/2 4/9/2 2/10/2
f 12/12/3 11/11/3 5/13/3 7/14/3
f 14/17/5 13/16/5 1/15/4 15/18/4
f 17/20/6 16/19/6 13/16/5 14/17/5
f 19/23/7 18/22/7 16/21/6 17/24/6
f 21/26/8 20/25/8 18/22/7 19/23/7
f 20/27/8 21/30/8 23/29/1 22/28/1
f 22/28/1 23/29/1 25/32/9 24/31/9
f 27/35/10 26/34/10 24/33/9 25/36/9
f 27/35/10 29/38/11 28/37/11 26/34/10
f 29/42/11 31/41/12 30/40/12 28/39/11
f 31/41/12 8/44/13 6/43/13 30/40/12

